<svg xmlns="http://www.w3.org/2000/svg" viewBox="0 0 26 22"><path d="M17.5.6c2 0 3.1.7 4.2 1.6.8 0 2-.5 2.7-.9L25 1c-.4 1-.9 1.8-1.7 2.5-.2 0-.4.3-.6.4 1.2 0 2.1-.6 3-.8-.5.7-1.1 1.5-1.8 2l-.8.7a15 15 0 0 1-10.5 15A15.7 15.7 0 0 1 2 20l-1.4-.8L0 19c.5 0 1.1.2 1.7 0h1.5c1.2-.4 2.2-.7 3.1-1.2.5-.3 1.1-.6 1.5-1-.6 0-1.2 0-1.6-.2A5.3 5.3 0 0 1 3 13.2c.5 0 2 .2 2.3-.1-.6 0-1.3-.4-1.7-.7A5 5 0 0 1 1 7.9a275.9 275.9 0 0 1 1.7.6h.7c-.3-.3-.8-.5-1-.8C1.6 6.6.8 4.9 1.3 2.9c.1-.5.3-1 .6-1.3l.5.5c.4.6 1 1 1.5 1.5A15.5 15.5 0 0 0 12.7 7 5.2 5.2 0 0 1 17 .7l.6-.1z"/></svg>